# xmcd CD database file generated by Grip 3.0.5
# 
# Track frame offsets:
#       150
#       12447
#       35025
#       54137
#       71860
#       87135
#       102850
#       126685
#       137270
#       152905
# 
# Disc length: 2274 seconds
# 
# Revision: 2
# Processed by: cddbd v1.5PL3 Copyright (c) Steve Scherf et al.
# Submitted via: Grip 3.0.5
# 
DISCID=8508e00a
DTITLE=Emmylou Harris - Brand New Dance
DYEAR=1900
DGENRE=Country
TTITLE0=Wheels of Love
TTITLE1=Tougher Than the Rest
TTITLE2=In His World
TTITLE3=Sweet Dreams of You
TTITLE4=Easy for You to Say
TTITLE5=Rollin' and Ramblin' (The Death of Hank Williams)
TTITLE6=Better Off Without You
TTITLE7=Never Be Anyone Else But You
TTITLE8=Brand New Dance
TTITLE9=Red Red Rose
EXTD=
EXTT0=
EXTT1=
EXTT2=
EXTT3=
EXTT4=
EXTT5=
EXTT6=
EXTT7=
EXTT8=
EXTT9=
PLAYORDER=
